# xmcd CD database file
#
# Track frame offsets:
#	182
#	13750
#	25887
#	36567
#	48345
#	64075
#	73625
#	84957
#	98787
#	110695
#	128895
#	144980
#
# Disc length: 2108 seconds
#
# Revision: 0
# Processed by: cddbd v1.5PL3 Copyright (c) Steve Scherf et al.
# Submitted via: CDex 1.51
#
DISCID=a3083a0c
DTITLE=J.J. Johnson and Kai Winding - Jay and Kai and 6
DYEAR=1956
DGENRE=Jazz
TTITLE0=Night In Tunisia
TTITLE1=Piece For Two Tromboniums
TTITLE2=Rise 'N' Shine
TTITLE3=All At Once You Love Her (From "Pie Dream")
TTITLE4=No Moon At All
TTITLE5=The Surrey With The Fringe On Top
TTITLE6=The Peanut Vendor
TTITLE7=You're My Thrill
TTITLE8=Jeanne
TTITLE9=Four Plus Four
TTITLE10=You Don't Know What Love Is
TTITLE11=The Continental (You Kiss While You're Dancing)
EXTD=YEAR: 1956
EXTT0=
EXTT1=
EXTT2=
EXTT3=
EXTT4=
EXTT5=
EXTT6=
EXTT7=
EXTT8=
EXTT9=
EXTT10=
EXTT11=
PLAYORDER=
